PathFileType	4	(X/Y/Z)	/home/nbianco/projects/addbio/data/HamnerRunning2013/Processed/subject04//results/MarkerData/run400.trc
DataRate	CameraRate	NumFrames	NumMarkers	Units	OrigDataRate	OrigDataStartFrame	OrigNumFrames
100	100	8	42	m	100	52	209
Frame#	Time	C7			CLAV			LACR			LASI			LCAL			LFAradius			LFAsuperior			LFAulna			LLEL			LMEL			LMT5			LPSI			LTB1			LTB2			LTB3			LTH1			LTH2			LTH3			LTOE			LUA1			LUA2			LUA3			RACR			RASI			RCAL			RFAradius			RFAsuperior			RFAulna			RLEL			RMEL			RMT5			RPSI			RTB1			RTB2			RTB3			RTH1			RTH2			RTH3			RTOE			RUA1			RUA2			RUA3		
		X1	Y1	Z1	X2	Y2	Z2	X3	Y3	Z3	X4	Y4	Z4	X5	Y5	Z5	X6	Y6	Z6	X7	Y7	Z7	X8	Y8	Z8	X9	Y9	Z9	X10	Y10	Z10	X11	Y11	Z11	X12	Y12	Z12	X13	Y13	Z13	X14	Y14	Z14	X15	Y15	Z15	X16	Y16	Z16	X17	Y17	Z17	X18	Y18	Z18	X19	Y19	Z19	X20	Y20	Z20	X21	Y21	Z21	X22	Y22	Z22	X23	Y23	Z23	X24	Y24	Z24	X25	Y25	Z25	X26	Y26	Z26	X27	Y27	Z27	X28	Y28	Z28	X29	Y29	Z29	X30	Y30	Z30	X31	Y31	Z31	X32	Y32	Z32	X33	Y33	Z33	X34	Y34	Z34	X35	Y35	Z35	X36	Y36	Z36	X37	Y37	Z37	X38	Y38	Z38	X39	Y39	Z39	X40	Y40	Z40	X41	Y41	Z41	X42	Y42	Z42

53	1.17	1.1388	1.52401	-0.363308	1.23275	1.4188	-0.304643	1.24189	1.47668	-0.512636	1.16179	0.972249	-0.453629	0.729545	0.138165	-0.382756	1.34446	1.17711	-0.520435	1.20642	1.16628	-0.626618	1.34994	1.10815	-0.542473	1.12286	1.1864	-0.651579	1.0815	1.16544	-0.56993	0.928787	0.054856	-0.438791	0.986746	1.03998	-0.392984	0.997497	0.307711	-0.414562	0.939709	0.269914	-0.457889	0.906629	0.202735	-0.39756	1.07395	0.83483	-0.526138	1.12865	0.700419	-0.511338	1.04797	0.5867	-0.497145	0.996798	0.0287438	-0.331471	1.1957	1.36084	-0.59594	1.10671	1.319	-0.591977	1.14084	1.24948	-0.627202	1.15235	1.48229	-0.178309	1.12482	0.973413	-0.196541	0.830051	0.559153	-0.306175	1.08768	1.10591	-0.136114	0.965795	1.21508	-0.0900452	1.03505	1.06453	-0.11014	0.896251	1.2746	-0.0942638	0.881923	1.27441	-0.185245	0.843555	0.338395	-0.238211	0.971514	1.0344	-0.301483	1.13214	0.460067	-0.278034	1.02187	0.488426	-0.237654	0.956452	0.459976	-0.303092	1.11413	0.813675	-0.155677	1.20077	0.747256	-0.166283	1.20856	0.609965	-0.185906	0.868491	0.326348	-0.313537	1.03964	1.38557	-0.112049	0.973764	1.39804	-0.138013	0.95732	1.33028	-0.109128
54	1.18	1.13914	1.52944	-0.362519	1.23254	1.42606	-0.301032	1.24441	1.48456	-0.509309	1.16442	0.973535	-0.454355	0.695806	0.150776	-0.384307	1.34998	1.19475	-0.508004	1.21579	1.17382	-0.617215	1.35933	1.12563	-0.527448	1.13205	1.18912	-0.645119	1.08929	1.17008	-0.563836	0.888767	0.0553192	-0.438335	0.990115	1.04364	-0.394038	0.965596	0.312487	-0.415921	0.906125	0.27644	-0.45855	0.872844	0.209192	-0.398462	1.07241	0.836312	-0.524633	1.11718	0.699355	-0.509427	1.02783	0.59076	-0.496705	0.955783	0.0290202	-0.330631	1.2006	1.36667	-0.592351	1.1121	1.32342	-0.590273	1.14855	1.25335	-0.622663	1.14843	1.48999	-0.177537	1.12909	0.980389	-0.198738	0.846329	0.532162	-0.311491	1.07946	1.12468	-0.136208	0.955756	1.23355	-0.0944898	1.02701	1.08291	-0.110885	0.885714	1.29129	-0.100817	0.875262	1.28997	-0.192521	0.884303	0.317056	-0.235152	0.974307	1.03966	-0.302084	1.15784	0.464192	-0.276486	1.04408	0.483768	-0.238201	0.983345	0.446498	-0.303024	1.12056	0.824991	-0.154431	1.20915	0.762478	-0.166032	1.22345	0.625601	-0.184703	0.91155	0.305152	-0.309758	1.03189	1.39868	-0.114182	0.968075	1.41183	-0.144444	0.948428	1.34547	-0.113572
55	1.19	1.13912	1.53526	-0.361265	1.23247	1.43403	-0.29772	1.24651	1.4932	-0.505591	1.1674	0.975531	-0.454875	0.66471	0.165506	-0.385847	1.3541	1.21354	-0.495968	1.22465	1.18271	-0.608395	1.3673	1.14457	-0.512883	1.14125	1.19325	-0.639228	1.09651	1.17581	-0.558912	0.849132	0.0558464	-0.43817	0.993915	1.0476	-0.395045	0.935171	0.319694	-0.41736	0.874149	0.285326	-0.459395	0.841069	0.217706	-0.399717	1.0715	0.838338	-0.523253	1.10689	0.699438	-0.506996	1.00901	0.596844	-0.496345	0.914631	0.0294019	-0.329844	1.20523	1.37377	-0.588835	1.11759	1.3289	-0.589796	1.1564	1.25837	-0.618533	1.14563	1.498	-0.176565	1.13432	0.987927	-0.201485	0.864989	0.502782	-0.316129	1.07288	1.14395	-0.136691	0.947101	1.25222	-0.0986948	1.02046	1.10177	-0.112204	0.877149	1.30889	-0.107193	0.869465	1.30672	-0.199479	0.926529	0.29589	-0.232718	0.977904	1.04542	-0.302718	1.18244	0.468198	-0.275195	1.06611	0.477855	-0.238656	1.01046	0.431992	-0.302791	1.1269	0.83647	-0.153618	1.21692	0.777306	-0.1664	1.23655	0.640973	-0.183468	0.956454	0.285104	-0.306546	1.02622	1.41177	-0.116138	0.964477	1.42598	-0.149888	0.941625	1.36122	-0.117788
56	1.2	1.139	1.54129	-0.359613	1.23256	1.44214	-0.294627	1.24862	1.50188	-0.501444	1.17068	0.977953	-0.455248	0.636607	0.181752	-0.387574	1.35685	1.23282	-0.484583	1.23289	1.19262	-0.600418	1.37385	1.16428	-0.499038	1.15041	1.19864	-0.634095	1.10356	1.18226	-0.555256	0.81011	0.0563777	-0.438377	0.998018	1.05172	-0.396011	0.906659	0.328874	-0.41875	0.844313	0.296194	-0.460564	0.811661	0.227765	-0.401577	1.07077	0.840764	-0.521996	1.09788	0.700826	-0.504049	0.992348	0.604397	-0.495996	0.873491	0.0298459	-0.329482	1.21003	1.38174	-0.585365	1.1235	1.33545	-0.590315	1.16444	1.26457	-0.614857	1.14377	1.50588	-0.175395	1.13981	0.995629	-0.20439	0.886468	0.471692	-0.319677	1.06783	1.16323	-0.137347	0.939613	1.27042	-0.102436	1.01527	1.12059	-0.114167	0.87024	1.32673	-0.11318	0.865067	1.32417	-0.20609	0.970333	0.275015	-0.231137	0.982239	1.05144	-0.303371	1.20607	0.471686	-0.274094	1.08833	0.470419	-0.238864	1.03831	0.416812	-0.30254	1.13317	0.847689	-0.153117	1.22415	0.791436	-0.166809	1.24794	0.655544	-0.182186	1.00292	0.266555	-0.304243	1.02232	1.42442	-0.117622	0.962672	1.44008	-0.154265	0.936614	1.37707	-0.121672
57	1.21	1.13893	1.54731	-0.35764	1.23279	1.44994	-0.2916	1.25092	1.51027	-0.496991	1.17431	0.980319	-0.45559	0.611763	0.199072	-0.389774	1.35841	1.25194	-0.473937	1.24069	1.20331	-0.593373	1.37916	1.18411	-0.486181	1.15959	1.2051	-0.629889	1.11063	1.1892	-0.552842	0.772026	0.0571507	-0.4389	1.0025	1.05597	-0.397113	0.880355	0.339551	-0.420175	0.816928	0.308642	-0.462167	0.784816	0.23885	-0.404177	1.06998	0.843425	-0.520951	1.0898	0.703167	-0.500746	0.977737	0.612783	-0.495451	0.83275	0.0307417	-0.329587	1.21523	1.39032	-0.581993	1.13003	1.34299	-0.59118	1.17269	1.27189	-0.611762	1.14267	1.51324	-0.1741	1.14494	1.00305	-0.207076	0.910804	0.43949	-0.321715	1.06411	1.18207	-0.137998	0.933374	1.28789	-0.105766	1.01139	1.13887	-0.116634	0.864749	1.34418	-0.118612	0.86247	1.34153	-0.212202	1.01602	0.254634	-0.230634	0.987146	1.05759	-0.30414	1.2288	0.474284	-0.273013	1.11102	0.461378	-0.238743	1.06745	0.401429	-0.302366	1.13938	0.858527	-0.152857	1.23064	0.804542	-0.166957	1.25763	0.668795	-0.180973	1.05072	0.249755	-0.303246	1.01978	1.43642	-0.118531	0.962338	1.45385	-0.157738	0.933086	1.39262	-0.125089
58	1.22	1.13899	1.55298	-0.355445	1.23316	1.45711	-0.288564	1.25336	1.51821	-0.492345	1.17838	0.982259	-0.45587	0.590534	0.217294	-0.392594	1.35902	1.2703	-0.464074	1.2483	1.21451	-0.587318	1.38342	1.20339	-0.474439	1.16887	1.21239	-0.626763	1.11775	1.19661	-0.551602	0.735299	0.0586847	-0.439694	1.00753	1.0603	-0.398563	0.8565	0.351373	-0.421664	0.792307	0.322196	-0.464108	0.760686	0.250619	-0.407294	1.06933	0.846233	-0.520222	1.08231	0.705822	-0.497279	0.964723	0.621522	-0.494528	0.792977	0.0323547	-0.329915	1.22085	1.3993	-0.578803	1.13707	1.35115	-0.591652	1.18114	1.28008	-0.609381	1.14223	1.51982	-0.172728	1.14941	1.00974	-0.2093	0.937848	0.406541	-0.322046	1.06154	1.20004	-0.138539	0.928476	1.30446	-0.10874	1.00876	1.15615	-0.119379	0.860545	1.36075	-0.123317	0.861405	1.35806	-0.217464	1.06383	0.235115	-0.231341	0.992359	1.06368	-0.305223	1.25064	0.475876	-0.271917	1.13437	0.450847	-0.23833	1.09801	0.386196	-0.302294	1.14535	0.868897	-0.152879	1.23614	0.816185	-0.166984	1.26563	0.680258	-0.180135	1.09959	0.234933	-0.303806	1.01832	1.44766	-0.118916	0.963195	1.46698	-0.160482	0.930827	1.40751	-0.127829
59	1.23	1.13922	1.55794	-0.353132	1.23377	1.46336	-0.285571	1.25582	1.52565	-0.48746	1.18285	0.983645	-0.455926	0.573219	0.236397	-0.39589	1.35889	1.28746	-0.455033	1.25582	1.22588	-0.582288	1.38673	1.22155	-0.463713	1.17824	1.22028	-0.624779	1.12492	1.20453	-0.55147	0.700224	0.061569	-0.440793	1.01306	1.06454	-0.400369	0.835316	0.36401	-0.42297	0.770823	0.336264	-0.466062	0.739353	0.262861	-0.410353	1.06928	0.849117	-0.519818	1.0754	0.708392	-0.493774	0.953147	0.630345	-0.493179	0.75438	0.0340705	-0.330321	1.22673	1.40841	-0.575823	1.1442	1.35943	-0.591242	1.18962	1.28889	-0.607776	1.14251	1.52543	-0.171259	1.15329	1.0153	-0.210956	0.967513	0.373027	-0.320964	1.06001	1.21675	-0.13895	0.924922	1.31993	-0.111306	1.00735	1.17205	-0.122194	0.857541	1.37603	-0.127081	0.861259	1.3733	-0.221571	1.1136	0.216953	-0.233087	0.997494	1.06938	-0.306769	1.27146	0.476542	-0.270911	1.15843	0.439095	-0.23771	1.12963	0.371191	-0.302223	1.1507	0.878486	-0.153226	1.2406	0.82594	-0.16717	1.27182	0.6896	-0.180085	1.1492	0.222327	-0.305719	1.01782	1.45792	-0.118847	0.96504	1.4791	-0.162522	0.929713	1.42139	-0.129639
60	1.24	1.13966	1.56193	-0.350795	1.23475	1.46844	-0.282741	1.25812	1.53253	-0.482215	1.1874	0.984539	-0.455615	0.559536	0.256295	-0.399372	1.3582	1.30308	-0.446832	1.26317	1.23701	-0.57821	1.38913	1.2381	-0.45379	1.18755	1.22852	-0.623847	1.13203	1.21286	-0.552352	0.666826	0.0663176	-0.442118	1.0188	1.06839	-0.402302	0.816926	0.376936	-0.423605	0.752719	0.350156	-0.467642	0.720619	0.275369	-0.412733	1.07017	0.851868	-0.519659	1.06934	0.710888	-0.490287	0.943257	0.639061	-0.491513	0.716377	0.0346949	-0.330984	1.23258	1.41734	-0.572996	1.15079	1.36751	-0.589917	1.1979	1.29805	-0.606923	1.14364	1.52996	-0.169646	1.15681	1.01944	-0.212003	0.999846	0.339157	-0.319256	1.05951	1.23179	-0.139244	0.922706	1.33402	-0.113353	1.00715	1.18621	-0.124871	0.85565	1.38967	-0.129681	0.861599	1.38708	-0.224416	1.16468	0.200624	-0.2353	1.00219	1.07438	-0.308752	1.29106	0.476328	-0.270016	1.18296	0.426462	-0.236947	1.16186	0.356322	-0.30195	1.15499	0.886701	-0.153768	1.24419	0.833522	-0.16761	1.27596	0.696633	-0.181108	1.19905	0.212082	-0.308202	1.01827	1.46681	-0.118331	0.967724	1.48977	-0.16371	0.929663	1.43388	-0.130324
